<svg version="1.1" id="Layer_1" xmlns="http://www.w3.org/2000/svg" xmlns:xlink="http://www.w3.org/1999/xlink" x="0px" y="0px"
	 width="100%" viewBox="0 0 256 256" enable-background="new 0 0 256 256" xml:space="preserve">
<path fill="#02D4AA" opacity="1.000000" stroke="none" 
	d="
M257.000000,23.000000 
	C257.000000,39.687561 257.000000,56.375122 256.531555,73.515228 
	C225.263000,74.023483 194.462860,74.079178 163.219604,74.074654 
	C157.502731,74.052559 152.228943,74.090683 146.506470,74.072525 
	C143.333740,74.053596 140.609741,74.090950 137.427002,74.080307 
	C131.033356,74.065155 125.098419,74.098000 118.687820,74.071136 
	C79.141441,74.007614 40.070721,74.003807 1.000000,74.000000 
	C1.000000,57.312439 1.000000,40.624878 1.460864,23.372887 
	C52.340714,22.788406 102.759705,22.775059 153.178680,22.740398 
	C159.998428,22.735710 166.818115,22.624043 174.143951,22.585739 
	C185.735870,22.528767 196.821671,22.447964 208.364761,22.491058 
	C224.881363,22.743303 240.940674,22.871651 257.000000,23.000000 
M104.636360,45.327400 
	C103.056480,40.003464 99.124306,40.619717 94.826050,41.811123 
	C94.598755,39.478634 94.394958,37.387375 94.191170,35.296112 
	C93.794678,35.015190 93.398193,34.734264 93.001701,34.453342 
	C92.061005,35.560558 90.365326,36.629864 90.307495,37.781414 
	C90.024689,43.412994 90.090530,49.069172 90.261665,54.709713 
	C90.291351,55.688259 91.419090,56.633484 92.039642,57.594093 
	C92.861176,56.653236 94.174393,55.816196 94.399628,54.749439 
	C94.838737,52.669773 94.329216,50.370564 94.873268,48.339237 
	C95.222206,47.036434 96.752296,46.049988 97.752922,44.921734 
	C98.656754,46.065716 100.049271,47.094341 100.352760,48.380035 
	C100.838402,50.437412 100.409103,52.696777 100.753952,54.807465 
	C100.918732,55.815975 101.973083,56.679146 102.624527,57.608143 
	C103.381775,56.619026 104.685066,55.684502 104.790474,54.630215 
	C105.069473,51.839695 104.830078,48.997341 104.636360,45.327400 
M31.956961,55.479630 
	C29.592184,54.373791 27.227406,53.267952 24.357218,51.925770 
	C24.357218,51.237808 24.357218,49.681587 24.357218,48.608616 
	C26.656725,46.239647 32.365513,50.564846 31.851553,43.828327 
	C30.450708,43.700565 29.269567,43.751610 28.183933,43.454113 
	C26.789377,43.071968 25.471529,42.409904 24.120636,41.868423 
	C25.466536,41.174507 26.785753,39.965897 28.163918,39.894455 
	C30.980927,39.748432 32.891479,39.390224 31.499243,35.749825 
	C27.783150,35.749825 24.027069,35.749825 20.264328,35.749825 
	C20.264328,43.121227 20.264328,50.182358 20.264328,58.250149 
	C24.466663,57.556370 28.186964,56.942173 31.956961,55.479630 
M110.010635,43.581356 
	C106.767395,49.121269 107.385735,53.917419 111.694733,56.644032 
	C115.676956,59.163864 120.389801,58.186180 123.856674,53.131130 
	C121.012840,53.516819 119.080223,54.107201 117.218613,53.934036 
	C115.540253,53.777920 113.939667,52.785667 112.304779,52.162178 
	C112.473686,51.658749 112.642593,51.155319 112.811501,50.651890 
	C116.737999,50.651890 120.664497,50.651890 124.830933,50.651890 
	C125.145531,46.617165 123.966408,43.696453 120.722847,41.973564 
	C117.201599,40.103172 113.715073,40.364788 110.010635,43.581356 
M35.143574,51.347317 
	C35.143658,52.176414 34.923508,53.086426 35.191910,53.816936 
	C35.677299,55.138000 36.454346,56.351910 37.109612,57.610561 
	C37.900085,56.307152 39.048275,55.091133 39.393291,53.678898 
	C39.856800,51.781673 39.378769,49.637619 39.928459,47.784481 
	C40.265049,46.649746 41.769848,45.861526 42.750015,44.917690 
	C43.611416,45.911484 45.010044,46.802578 45.223701,47.920204 
	C45.685169,50.334110 45.384064,52.885864 45.726540,55.334850 
	C45.842972,56.167442 46.954487,56.860882 47.611298,57.617901 
	C48.362511,56.959721 49.734230,56.325226 49.760410,55.639374 
	C49.892689,52.174175 50.188404,48.567867 49.369175,45.274105 
	C48.941467,43.554474 46.502773,41.505138 44.675213,41.154793 
	C41.813839,40.606270 38.700573,41.371727 35.688896,41.580555 
	C35.546040,41.874279 35.286465,42.164913 35.278587,42.462219 
	C35.208347,45.112068 35.182556,47.763096 35.143574,51.347317 
M72.823486,55.747166 
	C78.652306,59.126240 81.944008,58.818218 86.546120,53.764347 
	C84.518745,53.616508 83.103928,53.611103 81.723511,53.390472 
	C79.478889,53.031712 77.007957,52.961517 75.146423,51.882759 
	C74.391403,51.445225 74.327591,47.681534 75.096191,47.176365 
	C76.895866,45.993511 79.366936,45.738255 81.608536,45.355564 
	C83.040184,45.111156 84.547470,45.309792 87.106392,45.309792 
	C81.973801,40.298359 77.026459,39.811188 73.164017,42.893478 
	C69.335663,45.948547 69.029884,50.139160 72.823486,55.747166 
M56.715084,56.649212 
	C56.777069,51.216816 56.113956,45.602444 61.894917,41.398148 
	C58.054283,41.398148 55.579033,41.398148 52.626411,41.398148 
	C52.626411,46.132114 52.647423,50.569904 52.618652,55.007366 
	C52.600941,57.739319 54.078018,57.985661 56.715084,56.649212 
M127.102875,54.943771 
	C127.952370,55.830723 128.801865,56.717678 129.651352,57.604626 
	C130.238190,56.778435 131.353226,55.933750 131.325043,55.129097 
	C131.158676,50.377430 131.162582,45.788231 135.531296,42.566376 
	C135.738754,42.413368 135.557922,41.733849 135.557922,41.410023 
	C132.722015,41.410023 130.117844,41.410023 127.100258,41.410023 
	C127.100258,45.826130 127.100258,49.942204 127.102875,54.943771 
M62.978561,49.488571 
	C62.979580,51.307079 62.754597,53.166275 63.071732,54.927872 
	C63.244518,55.887650 64.337044,56.681854 65.014748,57.550728 
	C65.689804,56.676174 66.890633,55.834282 66.947350,54.921322 
	C67.172409,51.298290 67.243729,47.634766 66.920105,44.026779 
	C66.818344,42.892197 65.300514,41.884636 64.430809,40.818935 
	C63.946720,41.111320 63.462635,41.403706 62.978546,41.696091 
	C62.978546,43.977840 62.978546,46.259586 62.978561,49.488571 
z"/>
<path fill="#575454" opacity="1.000000" stroke="none" 
	d="
M1.000000,74.468658 
	C40.070721,74.003807 79.141441,74.007614 118.541519,74.371559 
	C101.350807,91.300995 83.775177,107.812279 66.360901,124.492020 
	C63.151134,127.566406 59.985909,130.985687 57.856617,134.830826 
	C52.579941,144.359634 47.396633,154.005646 43.121933,164.008881 
	C36.271954,180.038513 37.303333,195.103622 50.837708,207.466385 
	C44.942822,213.648453 38.996342,219.662094 33.307453,225.910263 
	C27.017080,232.819061 27.382999,240.003647 34.087471,246.500870 
	C36.834148,249.162613 39.707233,251.696838 42.384426,254.424866 
	C42.914196,254.964706 42.811192,256.125549 43.000000,257.000000 
	C29.027269,257.000000 15.054539,257.000000 1.000000,257.000000 
	C1.000000,196.312469 1.000000,135.624893 1.000000,74.468658 
z"/>
<path fill="#FAFAFA" opacity="1.000000" stroke="none" 
	d="
M146.955170,74.128807 
	C152.228943,74.090683 157.502731,74.052559 163.085327,74.354073 
	C140.739304,101.329765 118.172203,128.041504 95.331741,154.517426 
	C92.038582,158.334763 87.833542,161.850922 83.334793,164.026596 
	C76.909912,167.133820 74.277550,172.432266 72.129280,178.443909 
	C70.716454,182.397507 72.569550,184.676682 76.341110,183.895737 
	C81.293320,182.870316 86.402275,181.467224 90.789558,179.042648 
	C110.872650,167.944046 122.959808,148.603210 138.323135,132.914841 
	C133.373138,122.971718 133.954880,119.245285 141.314697,111.466080 
	C144.519745,108.078407 147.739731,104.704887 150.948105,101.320381 
	C159.691315,92.097214 165.977890,91.929169 175.114334,100.570328 
	C200.888306,124.947090 226.673019,149.312576 252.514954,173.617157 
	C253.704636,174.736084 255.491348,175.220215 257.000000,176.000000 
	C257.000000,187.020889 257.000000,198.041794 256.674896,209.353043 
	C254.940048,211.046463 253.487183,212.409088 252.127594,213.859161 
	C243.063858,223.526230 240.382889,224.035278 228.721130,218.355270 
	C226.432159,221.038116 224.273849,223.766937 221.909103,226.303314 
	C213.757721,235.046249 205.493866,243.684708 197.385101,252.466629 
	C196.266052,253.678558 195.779434,255.474457 195.000000,257.000000 
	C188.978851,257.000000 182.957703,257.000000 176.510315,256.661102 
	C178.185715,254.066345 180.287354,251.810486 182.643845,249.281067 
	C153.525604,232.356674 124.910164,215.724518 96.445099,199.179779 
	C102.019005,193.188110 106.888222,194.326828 112.984726,197.994247 
	C136.908829,212.386078 161.196838,226.173004 185.353851,240.177429 
	C186.610550,240.905975 187.905563,241.568466 189.291153,242.320557 
	C193.088058,238.284302 196.675186,234.471054 200.471207,230.435745 
	C173.153259,214.565628 146.339630,198.988495 119.427116,183.353897 
	C122.087944,179.171616 124.501915,178.310501 128.858093,180.949585 
	C145.060791,190.765579 161.548996,200.110519 177.937073,209.620163 
	C186.971756,214.862793 196.020477,220.081238 205.227051,225.405533 
	C209.050919,221.350952 212.672485,217.510834 216.548523,213.400925 
	C187.183350,196.355652 158.192139,179.527451 129.018204,162.593185 
	C125.948013,165.859390 123.276398,169.058075 120.236618,171.856888 
	C114.866089,176.801697 109.605873,181.971375 103.691360,186.195435 
	C94.997437,192.404480 85.693832,197.678482 74.360893,197.054138 
	C63.112305,196.434448 56.863777,188.917084 58.890213,178.073227 
	C60.458462,169.681244 65.047333,162.732681 70.372276,156.253693 
	C70.851387,155.670761 71.748024,155.439270 72.433105,155.015991 
	C76.605339,152.438080 81.716827,150.672409 84.789040,147.136261 
	C105.751007,123.008888 126.283882,98.508720 146.955170,74.128807 
M147.754883,123.539169 
	C148.702621,124.666046 149.549850,125.899231 150.612762,126.904297 
	C179.028015,153.772919 207.464066,180.619537 235.906250,207.459671 
	C236.710754,208.218857 237.620682,208.866333 238.576874,209.643448 
	C243.744568,204.164734 248.759491,198.848007 254.044525,193.244904 
	C223.684326,164.574524 193.377213,135.954254 162.939346,107.210510 
	C157.708267,112.751411 152.916000,117.827530 147.754883,123.539169 
M209.876358,190.618118 
	C191.046387,172.846573 172.216415,155.075027 153.156769,137.086700 
	C147.174133,143.417511 141.495926,149.426178 135.791687,155.462387 
	C148.841522,165.157104 221.079590,205.812378 225.001480,205.004898 
	C219.886322,200.135620 215.141510,195.618896 209.876358,190.618118 
z"/>
<path fill="#585555" opacity="1.000000" stroke="none" 
	d="
M257.000000,175.531342 
	C255.491348,175.220215 253.704636,174.736084 252.514954,173.617157 
	C226.673019,149.312576 200.888306,124.947090 175.114334,100.570328 
	C165.977890,91.929169 159.691315,92.097214 150.948105,101.320381 
	C147.739731,104.704887 144.519745,108.078407 141.314697,111.466080 
	C133.954880,119.245285 133.373138,122.971718 138.323135,132.914841 
	C122.959808,148.603210 110.872650,167.944046 90.789558,179.042648 
	C86.402275,181.467224 81.293320,182.870316 76.341110,183.895737 
	C72.569550,184.676682 70.716454,182.397507 72.129280,178.443909 
	C74.277550,172.432266 76.909912,167.133820 83.334793,164.026596 
	C87.833542,161.850922 92.038582,158.334763 95.331741,154.517426 
	C118.172203,128.041504 140.739304,101.329765 163.528442,74.414291 
	C194.462860,74.079178 225.263000,74.023483 256.531555,73.983887 
	C257.000000,107.687561 257.000000,141.375122 257.000000,175.531342 
z"/>
<path fill="#050505" opacity="1.000000" stroke="none" 
	d="
M146.506470,74.072525 
	C126.283882,98.508720 105.751007,123.008888 84.789040,147.136261 
	C81.716827,150.672409 76.605339,152.438080 72.433105,155.015991 
	C71.748024,155.439270 70.851387,155.670761 70.372276,156.253693 
	C65.047333,162.732681 60.458462,169.681244 58.890213,178.073227 
	C56.863777,188.917084 63.112305,196.434448 74.360893,197.054138 
	C85.693832,197.678482 94.997437,192.404480 103.691360,186.195435 
	C109.605873,181.971375 114.866089,176.801697 120.236618,171.856888 
	C123.276398,169.058075 125.948013,165.859390 129.018204,162.593185 
	C158.192139,179.527451 187.183350,196.355652 216.548523,213.400925 
	C212.672485,217.510834 209.050919,221.350952 205.227051,225.405533 
	C196.020477,220.081238 186.971756,214.862793 177.937073,209.620163 
	C161.548996,200.110519 145.060791,190.765579 128.858093,180.949585 
	C124.501915,178.310501 122.087944,179.171616 119.427116,183.353897 
	C146.339630,198.988495 173.153259,214.565628 200.471207,230.435745 
	C196.675186,234.471054 193.088058,238.284302 189.291153,242.320557 
	C187.905563,241.568466 186.610550,240.905975 185.353851,240.177429 
	C161.196838,226.173004 136.908829,212.386078 112.984726,197.994247 
	C106.888222,194.326828 102.019005,193.188110 96.445099,199.179779 
	C124.910164,215.724518 153.525604,232.356674 182.643845,249.281067 
	C180.287354,251.810486 178.185715,254.066345 176.042038,256.661102 
	C171.975449,257.000000 167.950912,257.000000 163.357315,256.669922 
	C136.572586,241.122208 110.356918,225.904541 84.067978,210.644348 
	C86.812729,207.368469 89.447334,204.224030 92.349716,201.031204 
	C92.629318,200.744934 92.641144,200.507050 92.652962,200.269165 
	C92.337303,200.419861 92.021652,200.570572 91.325356,200.752258 
	C87.261368,201.759613 83.632225,203.122543 79.885628,203.647873 
	C59.863369,206.455231 46.734127,190.805542 53.646896,171.928131 
	C55.946304,165.648880 60.120628,160.053467 63.470486,154.164017 
	C64.118156,153.025330 65.497452,152.002991 65.555573,150.876266 
	C66.014496,141.978790 72.030197,136.679657 77.843727,131.168228 
	C97.877373,112.175644 117.874619,93.144661 137.885727,74.128304 
	C140.609741,74.090950 143.333740,74.053596 146.506470,74.072525 
M79.072922,147.284744 
	C81.215805,144.603012 83.505974,142.020218 85.413544,139.180420 
	C86.000336,138.306854 85.968811,135.898117 85.475204,135.644882 
	C84.345703,135.065414 82.390732,134.816116 81.422798,135.441528 
	C78.577728,137.279800 76.050407,139.609848 74.078316,141.199493 
	C75.702675,143.615417 76.824707,145.284225 77.483093,147.105164 
	C77.820740,147.284698 78.158386,147.464233 79.072922,147.284744 
z"/>
<path fill="#FAFAFA" opacity="1.000000" stroke="none" 
	d="
M92.081940,201.079590 
	C89.447334,204.224030 86.812729,207.368469 84.067978,210.644348 
	C110.356918,225.904541 136.572586,241.122208 162.894135,256.669922 
	C156.645599,257.000000 150.291214,257.000000 143.774567,256.720825 
	C142.446640,255.563568 141.356140,254.556564 140.104080,253.826706 
	C120.185211,242.215515 100.247070,230.637390 80.306541,219.063416 
	C79.349579,218.507980 78.329834,218.060699 77.169212,217.477570 
	C74.621643,220.210846 72.259727,222.744934 69.701508,225.489639 
	C78.371246,233.479675 86.085724,242.174072 96.840218,247.358673 
	C102.468155,250.071838 107.628487,253.754944 113.000000,257.000000 
	C107.311958,257.000000 101.623917,257.000000 95.725479,256.707855 
	C82.637657,244.178543 69.760231,231.941360 56.759586,219.587097 
	C51.314140,225.369522 46.244968,230.752396 41.156551,236.155701 
	C48.790806,243.440765 55.895401,250.220383 63.000000,257.000000 
	C56.645603,257.000000 50.291203,257.000000 43.468407,257.000000 
	C42.811192,256.125549 42.914196,254.964706 42.384426,254.424866 
	C39.707233,251.696838 36.834148,249.162613 34.087471,246.500870 
	C27.382999,240.003647 27.017080,232.819061 33.307453,225.910263 
	C38.996342,219.662094 44.942822,213.648453 50.837708,207.466385 
	C37.303333,195.103622 36.271954,180.038513 43.121933,164.008881 
	C47.396633,154.005646 52.579941,144.359634 57.856617,134.830826 
	C59.985909,130.985687 63.151134,127.566406 66.360901,124.492020 
	C83.775177,107.812279 101.350807,91.300995 119.017174,74.431267 
	C125.098419,74.098000 131.033356,74.065155 137.427002,74.080307 
	C117.874619,93.144661 97.877373,112.175644 77.843727,131.168228 
	C72.030197,136.679657 66.014496,141.978790 65.555573,150.876266 
	C65.497452,152.002991 64.118156,153.025330 63.470486,154.164017 
	C60.120628,160.053467 55.946304,165.648880 53.646896,171.928131 
	C46.734127,190.805542 59.863369,206.455231 79.885628,203.647873 
	C83.632225,203.122543 87.261368,201.759613 91.419952,200.841187 
	C91.895195,200.899139 92.081940,201.079590 92.081940,201.079590 
z"/>
<path fill="#555756" opacity="1.000000" stroke="none" 
	d="
M173.637833,22.561911 
	C166.818115,22.624043 159.998428,22.735710 153.178680,22.740398 
	C102.759705,22.775059 52.340714,22.788406 1.460864,22.904228 
	C1.000000,15.681548 1.000000,8.363096 1.000000,1.000000 
	C65.354218,1.000000 129.708450,1.000000 194.654236,1.337719 
	C188.043137,8.637595 180.840485,15.599752 173.637833,22.561911 
z"/>
<path fill="#585555" opacity="1.000000" stroke="none" 
	d="
M195.468658,257.000000 
	C195.779434,255.474457 196.266052,253.678558 197.385101,252.466629 
	C205.493866,243.684708 213.757721,235.046249 221.909103,226.303314 
	C224.273849,223.766937 226.432159,221.038116 228.721130,218.355270 
	C240.382889,224.035278 243.063858,223.526230 252.127594,213.859161 
	C253.487183,212.409088 254.940048,211.046463 256.674896,209.821701 
	C257.000000,225.603531 257.000000,241.207047 257.000000,257.000000 
	C236.646164,257.000000 216.291733,257.000000 195.468658,257.000000 
z"/>
<path fill="#040404" opacity="1.000000" stroke="none" 
	d="
M113.468658,257.000000 
	C107.628487,253.754944 102.468155,250.071838 96.840218,247.358673 
	C86.085724,242.174072 78.371246,233.479675 69.701508,225.489639 
	C72.259727,222.744934 74.621643,220.210846 77.169212,217.477570 
	C78.329834,218.060699 79.349579,218.507980 80.306541,219.063416 
	C100.247070,230.637390 120.185211,242.215515 140.104080,253.826706 
	C141.356140,254.556564 142.446640,255.563568 143.306152,256.720825 
	C133.312439,257.000000 123.624878,257.000000 113.468658,257.000000 
z"/>
<path fill="#040404" opacity="1.000000" stroke="none" 
	d="
M63.468658,257.000000 
	C55.895401,250.220383 48.790806,243.440765 41.156551,236.155701 
	C46.244968,230.752396 51.314140,225.369522 56.759586,219.587097 
	C69.760231,231.941360 82.637657,244.178543 95.257538,256.707855 
	C84.645775,257.000000 74.291542,257.000000 63.468658,257.000000 
z"/>
<path fill="#555857" opacity="1.000000" stroke="none" 
	d="
M257.000000,22.531218 
	C240.940674,22.871651 224.881363,22.743303 208.556671,22.272652 
	C214.194199,14.953566 220.097092,7.976784 226.000000,1.000001 
	C236.247208,1.000000 246.494431,1.000000 257.000000,1.000000 
	C257.000000,8.018707 257.000000,15.040571 257.000000,22.531218 
z"/>
<path fill="#F8FCFB" opacity="1.000000" stroke="none" 
	d="
M225.531342,1.000001 
	C220.097092,7.976784 214.194199,14.953566 208.099396,22.148754 
	C196.821671,22.447964 185.735870,22.528767 174.143951,22.585739 
	C180.840485,15.599752 188.043137,8.637595 195.122894,1.337719 
	C205.020889,1.000000 215.041794,1.000000 225.531342,1.000001 
z"/>
<path fill="#E7FBF7" opacity="1.000000" stroke="none" 
	d="
M104.716667,45.751511 
	C104.830078,48.997341 105.069473,51.839695 104.790474,54.630215 
	C104.685066,55.684502 103.381775,56.619026 102.624527,57.608143 
	C101.973083,56.679146 100.918732,55.815975 100.753952,54.807465 
	C100.409103,52.696777 100.838402,50.437412 100.352760,48.380035 
	C100.049271,47.094341 98.656754,46.065716 97.752914,44.921730 
	C96.752296,46.049988 95.222206,47.036434 94.873268,48.339237 
	C94.329216,50.370564 94.838737,52.669773 94.399628,54.749439 
	C94.174393,55.816196 92.861176,56.653236 92.039642,57.594093 
	C91.419090,56.633484 90.291351,55.688259 90.261665,54.709713 
	C90.090530,49.069172 90.024689,43.412994 90.307495,37.781414 
	C90.365326,36.629864 92.061005,35.560558 93.001701,34.453342 
	C93.398193,34.734264 93.794678,35.015190 94.191170,35.296112 
	C94.394958,37.387375 94.598755,39.478634 94.826050,41.811123 
	C99.124306,40.619717 103.056480,40.003464 104.716667,45.751511 
z"/>
<path fill="#EAFBF8" opacity="1.000000" stroke="none" 
	d="
M31.932114,55.903801 
	C28.186964,56.942173 24.466663,57.556370 20.264328,58.250149 
	C20.264328,50.182358 20.264328,43.121227 20.264328,35.749825 
	C24.027069,35.749825 27.783150,35.749825 31.499243,35.749825 
	C32.891479,39.390224 30.980927,39.748432 28.163918,39.894455 
	C26.785753,39.965897 25.466536,41.174507 24.120636,41.868423 
	C25.471529,42.409904 26.789377,43.071968 28.183933,43.454113 
	C29.269567,43.751610 30.450708,43.700565 31.851553,43.828327 
	C32.365513,50.564846 26.656725,46.239647 24.357218,48.608616 
	C24.357218,49.681587 24.357218,51.237808 24.357218,51.925770 
	C27.227406,53.267952 29.592184,54.373791 31.932114,55.903801 
z"/>
<path fill="#E2FAF5" opacity="1.000000" stroke="none" 
	d="
M110.287704,43.297424 
	C113.715073,40.364788 117.201599,40.103172 120.722847,41.973564 
	C123.966408,43.696453 125.145531,46.617165 124.830933,50.651890 
	C120.664497,50.651890 116.737999,50.651890 112.811501,50.651890 
	C112.642593,51.155319 112.473686,51.658749 112.304779,52.162178 
	C113.939667,52.785667 115.540253,53.777920 117.218613,53.934036 
	C119.080223,54.107201 121.012840,53.516819 123.856674,53.131130 
	C120.389801,58.186180 115.676956,59.163864 111.694733,56.644032 
	C107.385735,53.917419 106.767395,49.121269 110.287704,43.297424 
z"/>
<path fill="#E4FBF6" opacity="1.000000" stroke="none" 
	d="
M35.143623,50.880547 
	C35.182556,47.763096 35.208347,45.112068 35.278587,42.462219 
	C35.286465,42.164913 35.546040,41.874279 35.691452,41.580574 
	C38.700573,41.371727 41.813839,40.606270 44.675213,41.154793 
	C46.502773,41.505138 48.941467,43.554474 49.369175,45.274105 
	C50.188404,48.567867 49.892689,52.174175 49.760410,55.639374 
	C49.734230,56.325226 48.362511,56.959721 47.611298,57.617905 
	C46.954487,56.860882 45.842972,56.167442 45.726540,55.334850 
	C45.384064,52.885864 45.685169,50.334110 45.223701,47.920204 
	C45.010044,46.802578 43.611416,45.911484 42.750015,44.917690 
	C41.769848,45.861526 40.265049,46.649746 39.928459,47.784481 
	C39.378769,49.637619 39.856800,51.781673 39.393291,53.678898 
	C39.048275,55.091133 37.900085,56.307152 37.109612,57.610561 
	C36.454346,56.351910 35.677299,55.138000 35.191910,53.816936 
	C34.923508,53.086426 35.143658,52.176414 35.143623,50.880547 
z"/>
<path fill="#F0FDFA" opacity="1.000000" stroke="none" 
	d="
M72.544830,55.472668 
	C69.029884,50.139160 69.335663,45.948547 73.164017,42.893478 
	C77.026459,39.811188 81.973801,40.298359 87.106392,45.309792 
	C84.547470,45.309792 83.040184,45.111156 81.608536,45.355564 
	C79.366936,45.738255 76.895866,45.993511 75.096191,47.176365 
	C74.327591,47.681534 74.391403,51.445225 75.146423,51.882759 
	C77.007957,52.961517 79.478889,53.031712 81.723511,53.390472 
	C83.103928,53.611103 84.518745,53.616508 86.546120,53.764347 
	C81.944008,58.818218 78.652306,59.126240 72.544830,55.472668 
z"/>
<path fill="#EAFCF8" opacity="1.000000" stroke="none" 
	d="
M56.457478,56.957684 
	C54.078018,57.985661 52.600941,57.739319 52.618652,55.007366 
	C52.647423,50.569904 52.626411,46.132114 52.626411,41.398148 
	C55.579033,41.398148 58.054283,41.398148 61.894917,41.398148 
	C56.113956,45.602444 56.777069,51.216816 56.457478,56.957684 
z"/>
<path fill="#E0FAF5" opacity="1.000000" stroke="none" 
	d="
M127.101562,54.501022 
	C127.100258,49.942204 127.100258,45.826130 127.100258,41.410023 
	C130.117844,41.410023 132.722015,41.410023 135.557922,41.410023 
	C135.557922,41.733849 135.738754,42.413368 135.531296,42.566376 
	C131.162582,45.788231 131.158676,50.377430 131.325043,55.129097 
	C131.353226,55.933750 130.238190,56.778435 129.651352,57.604630 
	C128.801865,56.717678 127.952370,55.830723 127.101562,54.501022 
z"/>
<path fill="#F3FDFB" opacity="1.000000" stroke="none" 
	d="
M62.978554,49.014954 
	C62.978546,46.259586 62.978546,43.977840 62.978546,41.696091 
	C63.462635,41.403706 63.946720,41.111320 64.430809,40.818935 
	C65.300514,41.884636 66.818344,42.892197 66.920105,44.026779 
	C67.243729,47.634766 67.172409,51.298290 66.947350,54.921322 
	C66.890633,55.834282 65.689804,56.676174 65.014755,57.550728 
	C64.337044,56.681854 63.244518,55.887650 63.071732,54.927872 
	C62.754597,53.166275 62.979580,51.307079 62.978554,49.014954 
z"/>
<path fill="#030303" opacity="1.000000" stroke="none" 
	d="
M147.939301,123.221405 
	C152.916000,117.827530 157.708267,112.751411 162.939346,107.210510 
	C193.377213,135.954254 223.684326,164.574524 254.044525,193.244904 
	C248.759491,198.848007 243.744568,204.164734 238.576874,209.643448 
	C237.620682,208.866333 236.710754,208.218857 235.906250,207.459671 
	C207.464066,180.619537 179.028015,153.772919 150.612762,126.904297 
	C149.549850,125.899231 148.702621,124.666046 147.939301,123.221405 
z"/>
<path fill="#050505" opacity="1.000000" stroke="none" 
	d="
M210.136536,190.860138 
	C215.141510,195.618896 219.886322,200.135620 225.001480,205.004898 
	C221.079590,205.812378 148.841522,165.157104 135.791687,155.462387 
	C141.495926,149.426178 147.174133,143.417511 153.156769,137.086700 
	C172.216415,155.075027 191.046387,172.846573 210.136536,190.860138 
z"/>
<path fill="#F0F0F0" opacity="1.000000" stroke="none" 
	d="
M77.946732,146.953018 
	C76.824707,145.284225 75.702675,143.615417 74.078316,141.199493 
	C76.050407,139.609848 78.577728,137.279800 81.422798,135.441528 
	C82.390732,134.816116 84.345703,135.065414 85.475204,135.644882 
	C85.968811,135.898117 86.000336,138.306854 85.413544,139.180420 
	C83.505974,142.020218 81.215805,144.603012 78.659897,147.281433 
	C78.246864,147.278137 77.946732,146.953018 77.946732,146.953018 
z"/>
<path fill="#FAFAFA" opacity="1.000000" stroke="none" 
	d="
M91.800598,200.810211 
	C92.021652,200.570572 92.337303,200.419861 92.652962,200.269165 
	C92.641144,200.507050 92.629318,200.744934 92.349716,201.031204 
	C92.081940,201.079590 91.895195,200.899139 91.800598,200.810211 
z"/>
<path fill="#F0F0F0" opacity="1.000000" stroke="none" 
	d="
M78.371452,147.460953 
	C78.158386,147.464233 77.820740,147.284698 77.714912,147.029083 
	C77.946732,146.953018 78.246864,147.278137 78.371452,147.460953 
z"/>
</svg>